<svg width="1248" height="911" viewBox="0 0 1248 911" fill="none" xmlns="http://www.w3.org/2000/svg">
<path d="M1187.19 120.494C1153.88 120.494 1126.88 93.5207 1126.88 60.2471C1126.88 26.9736 1153.88 0 1187.19 0C1220.5 0 1247.5 26.9736 1247.5 60.2471C1247.5 93.5207 1220.5 120.494 1187.19 120.494Z" fill="url(#paint0_radial_2_16)"/>
<path d="M1187.19 317.989C1153.88 317.989 1126.88 291.015 1126.88 257.741C1126.88 224.468 1153.88 197.494 1187.19 197.494C1220.5 197.494 1247.5 224.468 1247.5 257.741C1247.5 291.015 1220.5 317.989 1187.19 317.989Z" fill="url(#paint1_radial_2_16)"/>
<path d="M1187.19 515.483C1153.88 515.483 1126.88 488.509 1126.88 455.236C1126.88 421.962 1153.88 394.989 1187.19 394.989C1220.5 394.989 1247.5 421.962 1247.5 455.236C1247.5 488.509 1220.5 515.483 1187.19 515.483Z" fill="url(#paint2_radial_2_16)"/>
<path d="M1187.19 712.977C1153.88 712.977 1126.88 686.003 1126.88 652.73C1126.88 619.456 1153.88 592.483 1187.19 592.483C1220.5 592.483 1247.5 619.456 1247.5 652.73C1247.5 686.003 1220.5 712.977 1187.19 712.977Z" fill="url(#paint3_radial_2_16)"/>
<path d="M1187.19 910.471C1153.88 910.471 1126.88 883.498 1126.88 850.224C1126.88 816.951 1153.88 789.977 1187.19 789.977C1220.5 789.977 1247.5 816.951 1247.5 850.224C1247.5 883.498 1220.5 910.471 1187.19 910.471Z" fill="url(#paint4_radial_2_16)"/>
<path d="M811.564 120.494C778.254 120.494 751.251 93.5207 751.251 60.2471C751.251 26.9736 778.254 0 811.564 0C844.874 0 871.876 26.9736 871.876 60.2471C871.876 93.5207 844.874 120.494 811.564 120.494Z" fill="url(#paint5_radial_2_16)"/>
<path d="M811.564 317.989C778.254 317.989 751.251 291.015 751.251 257.741C751.251 224.468 778.254 197.494 811.564 197.494C844.874 197.494 871.876 224.468 871.876 257.741C871.876 291.015 844.874 317.989 811.564 317.989Z" fill="url(#paint6_radial_2_16)"/>
<path d="M811.564 515.483C778.254 515.483 751.251 488.509 751.251 455.236C751.251 421.962 778.254 394.989 811.564 394.989C844.874 394.989 871.876 421.962 871.876 455.236C871.876 488.509 844.874 515.483 811.564 515.483Z" fill="url(#paint7_radial_2_16)"/>
<path d="M811.564 712.977C778.254 712.977 751.251 686.004 751.251 652.73C751.251 619.456 778.254 592.483 811.564 592.483C844.874 592.483 871.876 619.456 871.876 652.73C871.876 686.004 844.874 712.977 811.564 712.977Z" fill="url(#paint8_radial_2_16)"/>
<path d="M811.564 910.471C778.254 910.471 751.251 883.498 751.251 850.224C751.251 816.951 778.254 789.977 811.564 789.977C844.874 789.977 871.876 816.951 871.876 850.224C871.876 883.498 844.874 910.471 811.564 910.471Z" fill="url(#paint9_radial_2_16)"/>
<path d="M435.938 120.494C402.628 120.494 375.625 93.5207 375.625 60.2471C375.625 26.9736 402.628 0 435.938 0C469.248 0 496.251 26.9736 496.251 60.2471C496.251 93.5207 469.248 120.494 435.938 120.494Z" fill="url(#paint10_radial_2_16)"/>
<path d="M435.938 317.989C402.628 317.989 375.625 291.015 375.625 257.741C375.625 224.468 402.628 197.494 435.938 197.494C469.248 197.494 496.251 224.468 496.251 257.741C496.251 291.015 469.248 317.989 435.938 317.989Z" fill="url(#paint11_radial_2_16)"/>
<path d="M435.938 515.483C402.628 515.483 375.625 488.509 375.625 455.236C375.625 421.962 402.628 394.989 435.938 394.989C469.248 394.989 496.251 421.962 496.251 455.236C496.251 488.509 469.248 515.483 435.938 515.483Z" fill="url(#paint12_radial_2_16)"/>
<path d="M435.938 712.977C402.628 712.977 375.625 686.004 375.625 652.73C375.625 619.456 402.628 592.483 435.938 592.483C469.248 592.483 496.251 619.456 496.251 652.73C496.251 686.004 469.248 712.977 435.938 712.977Z" fill="url(#paint13_radial_2_16)"/>
<path d="M435.938 910.471C402.628 910.471 375.625 883.498 375.625 850.224C375.625 816.951 402.628 789.977 435.938 789.977C469.248 789.977 496.251 816.951 496.251 850.224C496.251 883.498 469.248 910.471 435.938 910.471Z" fill="url(#paint14_radial_2_16)"/>
<path d="M60.3127 120.494C27.0029 120.494 -6.86646e-05 93.5207 -6.86646e-05 60.2471C-6.86646e-05 26.9736 27.0029 0 60.3127 0C93.6225 0 120.625 26.9736 120.625 60.2471C120.625 93.5207 93.6225 120.494 60.3127 120.494Z" fill="url(#paint15_radial_2_16)"/>
<path d="M60.3127 317.989C27.0029 317.989 -6.86646e-05 291.015 -6.86646e-05 257.741C-6.86646e-05 224.468 27.0029 197.494 60.3127 197.494C93.6225 197.494 120.625 224.468 120.625 257.741C120.625 291.015 93.6225 317.989 60.3127 317.989Z" fill="url(#paint16_radial_2_16)"/>
<path d="M60.3127 515.483C27.0029 515.483 -6.86646e-05 488.509 -6.86646e-05 455.236C-6.86646e-05 421.962 27.0029 394.989 60.3127 394.989C93.6225 394.989 120.625 421.962 120.625 455.236C120.625 488.509 93.6225 515.483 60.3127 515.483Z" fill="url(#paint17_radial_2_16)"/>
<path d="M60.3127 712.977C27.0029 712.977 -6.86646e-05 686.004 -6.86646e-05 652.73C-6.86646e-05 619.456 27.0029 592.483 60.3127 592.483C93.6225 592.483 120.625 619.456 120.625 652.73C120.625 686.004 93.6225 712.977 60.3127 712.977Z" fill="url(#paint18_radial_2_16)"/>
<path d="M60.3127 910.471C27.0029 910.471 -6.86646e-05 883.498 -6.86646e-05 850.224C-6.86646e-05 816.951 27.0029 789.977 60.3127 789.977C93.6225 789.977 120.625 816.951 120.625 850.224C120.625 883.498 93.6225 910.471 60.3127 910.471Z" fill="url(#paint19_radial_2_16)"/>
<defs>
<radialGradient id="paint0_radial_2_16" cx="0" cy="0" r="1" gradientUnits="userSpaceOnUse" gradientTransform="translate(1214.57 32.3964) rotate(180) scale(97.7285 97.6222)">
<stop offset="0.00682297" stop-color="#FEFBFF"/>
<stop offset="0.3642" stop-color="#62A3E3"/>
<stop offset="0.6387" stop-color="#1D418D"/>
<stop offset="0.8322" stop-color="#0F0123"/>
<stop offset="1" stop-color="#815073"/>
</radialGradient>
<radialGradient id="paint1_radial_2_16" cx="0" cy="0" r="1" gradientUnits="userSpaceOnUse" gradientTransform="translate(1214.57 229.891) rotate(180) scale(97.7285 97.6222)">
<stop stop-color="#FFFEFA"/>
<stop offset="0.3642" stop-color="#E39062"/>
<stop offset="0.6387" stop-color="#8D1D1D"/>
<stop offset="0.8322" stop-color="#230101"/>
<stop offset="1" stop-color="#815065"/>
</radialGradient>
<radialGradient id="paint2_radial_2_16" cx="0" cy="0" r="1" gradientUnits="userSpaceOnUse" gradientTransform="translate(1214.57 427.385) rotate(180) scale(97.7285 97.6222)">
<stop offset="0.00682297" stop-color="#DDFECE"/>
<stop offset="0.567708" stop-color="#2CA0E1"/>
<stop offset="0.796875" stop-color="#0052CD"/>
<stop offset="1" stop-color="#4F80FF"/>
</radialGradient>
<radialGradient id="paint3_radial_2_16" cx="0" cy="0" r="1" gradientUnits="userSpaceOnUse" gradientTransform="translate(1214.57 624.879) rotate(133.373) scale(100.048 99.939)">
<stop stop-color="#FFD1F2"/>
<stop offset="0.244792" stop-color="#F937C2"/>
<stop offset="0.578125" stop-color="#840000"/>
<stop offset="0.848958" stop-color="#5C0053"/>
<stop offset="1" stop-color="#21366F"/>
</radialGradient>
<radialGradient id="paint4_radial_2_16" cx="0" cy="0" r="1" gradientUnits="userSpaceOnUse" gradientTransform="translate(1214.57 822.373) rotate(133.373) scale(100.048 99.939)">
<stop stop-color="#FCFFF7"/>
<stop offset="0.21875" stop-color="#A7E229"/>
<stop offset="0.520833" stop-color="#07B419"/>
<stop offset="0.848958" stop-color="#004A69"/>
<stop offset="1" stop-color="#21606F"/>
</radialGradient>
<radialGradient id="paint5_radial_2_16" cx="0" cy="0" r="1" gradientUnits="userSpaceOnUse" gradientTransform="translate(838.952 32.3964) rotate(180) scale(97.7285 97.6222)">
<stop stop-color="white"/>
<stop offset="0.130208" stop-color="#F0C8CE"/>
<stop offset="0.5013" stop-color="#25897C"/>
<stop offset="0.7946" stop-color="#081C0D"/>
<stop offset="1" stop-color="#8F000D"/>
</radialGradient>
<radialGradient id="paint6_radial_2_16" cx="0" cy="0" r="1" gradientUnits="userSpaceOnUse" gradientTransform="translate(838.952 229.891) rotate(180) scale(97.7285 97.6222)">
<stop offset="0.00682297" stop-color="#C9F0C8"/>
<stop offset="0.5013" stop-color="#338925"/>
<stop offset="0.822917" stop-color="#080A1C"/>
<stop offset="1" stop-color="#3F008F"/>
</radialGradient>
<radialGradient id="paint7_radial_2_16" cx="0" cy="0" r="1" gradientUnits="userSpaceOnUse" gradientTransform="translate(838.952 427.385) rotate(127.313) scale(103.168 103.056)">
<stop stop-color="#FEDCFF"/>
<stop offset="0.213542" stop-color="#CC95FB"/>
<stop offset="0.484375" stop-color="#5A84F0"/>
<stop offset="0.822917" stop-color="#063151"/>
<stop offset="1" stop-color="#007A6C"/>
</radialGradient>
<radialGradient id="paint8_radial_2_16" cx="0" cy="0" r="1" gradientUnits="userSpaceOnUse" gradientTransform="translate(838.952 624.879) rotate(180) scale(97.7285 97.6222)">
<stop stop-color="white"/>
<stop offset="0.25" stop-color="#C0C6F5"/>
<stop offset="0.520833" stop-color="#A43DC9"/>
<stop offset="0.838542" stop-color="#4D0B75"/>
<stop offset="1" stop-color="#0B4875"/>
</radialGradient>
<radialGradient id="paint9_radial_2_16" cx="0" cy="0" r="1" gradientUnits="userSpaceOnUse" gradientTransform="translate(838.952 822.373) rotate(180) scale(97.7285 97.6222)">
<stop stop-color="#FFF7E7"/>
<stop offset="0.239583" stop-color="#F5CB7A"/>
<stop offset="0.520833" stop-color="#F49191"/>
<stop offset="0.838542" stop-color="#D04B4B"/>
<stop offset="1" stop-color="#846C2F"/>
</radialGradient>
<radialGradient id="paint10_radial_2_16" cx="0" cy="0" r="1" gradientUnits="userSpaceOnUse" gradientTransform="translate(463.326 32.3964) rotate(180) scale(97.7285 97.6222)">
<stop stop-color="#FFF7FD"/>
<stop offset="0.3294" stop-color="#CF66C1"/>
<stop offset="0.5963" stop-color="#A12F89"/>
<stop offset="0.8065" stop-color="#3D0000"/>
<stop offset="1" stop-color="#00368C"/>
</radialGradient>
<radialGradient id="paint11_radial_2_16" cx="0" cy="0" r="1" gradientUnits="userSpaceOnUse" gradientTransform="translate(463.326 229.891) rotate(180) scale(97.7285 97.6222)">
<stop stop-color="#FBFFF7"/>
<stop offset="0.161458" stop-color="#CAEAA9"/>
<stop offset="0.5963" stop-color="#532FA1"/>
<stop offset="0.8065" stop-color="#14003D"/>
<stop offset="1" stop-color="#68008C"/>
</radialGradient>
<radialGradient id="paint12_radial_2_16" cx="0" cy="0" r="1" gradientUnits="userSpaceOnUse" gradientTransform="translate(463.326 427.385) rotate(180) scale(97.7285 97.6222)">
<stop stop-color="#F8FBFF"/>
<stop offset="0.197917" stop-color="#C6E3FF"/>
<stop offset="0.432292" stop-color="#5CC6F7"/>
<stop offset="0.75" stop-color="#007C97"/>
<stop offset="1" stop-color="#8E3401"/>
</radialGradient>
<radialGradient id="paint13_radial_2_16" cx="0" cy="0" r="1" gradientUnits="userSpaceOnUse" gradientTransform="translate(463.326 624.879) rotate(180) scale(97.7285 97.6222)">
<stop stop-color="#FEFFC6"/>
<stop offset="0.416667" stop-color="#4DB3CA"/>
<stop offset="0.817708" stop-color="#540C60"/>
<stop offset="1" stop-color="#3A0B0B"/>
</radialGradient>
<radialGradient id="paint14_radial_2_16" cx="0" cy="0" r="1" gradientUnits="userSpaceOnUse" gradientTransform="translate(463.326 822.373) rotate(180) scale(97.7285 97.6222)">
<stop stop-color="#F4EFFF"/>
<stop offset="0.151042" stop-color="#CCB5FF"/>
<stop offset="0.484375" stop-color="#AD3E7A"/>
<stop offset="0.817708" stop-color="#43684D"/>
<stop offset="1" stop-color="#5B708F"/>
</radialGradient>
<radialGradient id="paint15_radial_2_16" cx="0" cy="0" r="1" gradientUnits="userSpaceOnUse" gradientTransform="translate(77.0904 33.6866) rotate(126.719) scale(98.5983 105.943)">
<stop stop-color="white"/>
<stop offset="0.4147" stop-color="#6FC2F1"/>
<stop offset="0.7839" stop-color="#007058"/>
<stop offset="1" stop-color="#CFBD34"/>
</radialGradient>
<radialGradient id="paint16_radial_2_16" cx="0" cy="0" r="1" gradientUnits="userSpaceOnUse" gradientTransform="translate(77.0904 231.181) rotate(126.719) scale(98.5983 105.943)">
<stop stop-color="#FFFAC9"/>
<stop offset="0.4147" stop-color="#F1BD6F"/>
<stop offset="0.7839" stop-color="#FFB7B7"/>
<stop offset="1" stop-color="white"/>
</radialGradient>
<radialGradient id="paint17_radial_2_16" cx="0" cy="0" r="1" gradientUnits="userSpaceOnUse" gradientTransform="translate(77.0904 428.675) rotate(126.719) scale(98.5983 105.943)">
<stop stop-color="#FFDCC9"/>
<stop offset="0.4147" stop-color="#F95A00"/>
<stop offset="0.729167" stop-color="#DE0202"/>
<stop offset="1" stop-color="#59D7FF"/>
</radialGradient>
<radialGradient id="paint18_radial_2_16" cx="0" cy="0" r="1" gradientUnits="userSpaceOnUse" gradientTransform="translate(77.0904 626.169) rotate(126.719) scale(98.5983 105.943)">
<stop stop-color="#D1FFA3"/>
<stop offset="0.4147" stop-color="#F08200"/>
<stop offset="0.765625" stop-color="#AC0404"/>
<stop offset="1" stop-color="#470000"/>
</radialGradient>
<radialGradient id="paint19_radial_2_16" cx="0" cy="0" r="1" gradientUnits="userSpaceOnUse" gradientTransform="translate(77.0904 823.664) rotate(126.719) scale(98.5983 105.943)">
<stop stop-color="#FAFBFF"/>
<stop offset="0.203125" stop-color="#9CB8FF"/>
<stop offset="0.526042" stop-color="#00B59F"/>
<stop offset="0.822917" stop-color="#236B5E"/>
<stop offset="1" stop-color="#2D236B"/>
</radialGradient>
</defs>
</svg>
